<?xml version="1.0" encoding="iso-8859-1"?>
<!-- Generator: Adobe Illustrator 18.1.1, SVG Export Plug-In . SVG Version: 6.00 Build 0)  -->
<svg version="1.1" id="Capa_1" xmlns="http://www.w3.org/2000/svg" xmlns:xlink="http://www.w3.org/1999/xlink" x="0px" y="0px"
	 viewBox="0 0 369.946 369.946" style="enable-background:new 0 0 369.946 369.946;" xml:space="preserve">
<g>
	<g>
		<path style="fill:#010002;" d="M186.912,177.407c8.64-2.942,15.293-9.117,15.293-18.223c0-8.037-4.791-16.373-16.988-16.373
			c-11.277,0-17.453,7.405-17.453,16.057C167.759,168.91,175.33,174.316,186.912,177.407z"/>
		<path style="fill:#010002;" d="M184.973,101.437c-46.064,0-83.536,37.472-83.536,83.536s37.472,83.536,83.536,83.536
			c46.058,0,83.536-37.472,83.536-83.536C268.509,138.915,231.031,101.437,184.973,101.437z M184.746,236.867
			c-21.015,0-33.677-12.513-33.677-27.173c0-12.662,7.572-21.63,19.929-26.875l-0.161-0.465
			c-11.116-5.257-15.908-13.909-15.908-22.549c0-15.908,13.443-26.72,31.046-26.72c19.452,0,29.184,12.196,29.184,24.709
			c0,8.503-4.165,17.602-16.522,23.48v0.465c12.513,4.941,20.234,13.742,20.234,25.944
			C218.877,225.13,203.9,236.867,184.746,236.867z"/>
		<path style="fill:#010002;" d="M183.052,187.145c-11.743,3.395-18.068,11.116-18.068,20.687
			c-0.465,10.197,7.256,19.154,20.073,19.154c12.196,0,20.085-7.572,20.085-17.919C205.129,196.865,196.632,191.005,183.052,187.145
			z"/>
		<path style="fill:#010002;" d="M184.973,0C82.981,0,0,82.975,0,184.973s82.981,184.973,184.973,184.973
			s184.973-82.975,184.973-184.973S286.971,0,184.973,0z M184.973,280.443c-52.64,0-95.47-42.83-95.47-95.47
			s42.83-95.47,95.47-95.47s95.47,42.824,95.47,95.47S237.613,280.443,184.973,280.443z"/>
	</g>
</g>
<g>
</g>
<g>
</g>
<g>
</g>
<g>
</g>
<g>
</g>
<g>
</g>
<g>
</g>
<g>
</g>
<g>
</g>
<g>
</g>
<g>
</g>
<g>
</g>
<g>
</g>
<g>
</g>
<g>
</g>
</svg>
