<?xml version="1.0" encoding="iso-8859-1"?>
<!-- Generator: Adobe Illustrator 16.0.0, SVG Export Plug-In . SVG Version: 6.00 Build 0)  -->
<!DOCTYPE svg PUBLIC "-//W3C//DTD SVG 1.1//EN" "http://www.w3.org/Graphics/SVG/1.1/DTD/svg11.dtd">
<svg xmlns="http://www.w3.org/2000/svg" xmlns:xlink="http://www.w3.org/1999/xlink" version="1.1" id="Capa_1" x="0px" y="0px" width="24px" height="24px" viewBox="0 0 128 128" style="enable-background:new 0 0 128 128;" xml:space="preserve">
<g>
	<g>
		<path d="M127.949,27c-0.123-1.493-0.523-2.907-1.145-4.194c-0.594-1.234-1.39-2.352-2.351-3.307    c-1.946-1.937-4.554-3.208-7.455-3.448C116.67,16.023,116.338,16,116,16H64H12c-0.338,0-0.67,0.023-1,0.051    c-2.902,0.24-5.509,1.512-7.455,3.448c-0.961,0.955-1.757,2.072-2.351,3.307c-0.62,1.287-1.02,2.701-1.143,4.194    C0.023,27.33,0,27.662,0,28v24v28v20c0,0.338,0.023,0.67,0.051,1c0.481,5.827,5.122,10.468,10.949,10.949    c0.33,0.027,0.662,0.051,1,0.051h4.845h1.142h3.479H64h42.535h3.479h1.143H116c0.338,0,0.67-0.023,1-0.051    c5.827-0.481,10.468-5.122,10.949-10.949c0.027-0.33,0.051-0.662,0.051-1V80V52V28C128,27.662,127.977,27.33,127.949,27z M14,20    c0.338,0,0.671,0.018,1,0.051C15.33,20.023,15.662,20,16,20h1.986H64h46.014H112c0.338,0,0.67,0.023,1,0.051    c0.329-0.033,0.662-0.051,1-0.051c2.75,0,5.238,1.111,7.047,2.907L75.682,68.271l-1.424,1.424L72.854,71.1    c-0.237,0.238-0.487,0.457-0.74,0.67l-0.002,0.002c-0.209,0.256-0.434,0.504-0.672,0.742c-0.291,0.293-0.601,0.555-0.916,0.803    c-0.084,0.064-0.17,0.125-0.254,0.187c-0.256,0.188-0.519,0.363-0.787,0.522c-0.073,0.045-0.146,0.09-0.221,0.131    c-0.718,0.4-1.473,0.713-2.25,0.926c-0.002,0-0.003,0.001-0.005,0.001C66.023,75.352,65.01,75.45,64,75.415    c-1.01,0.035-2.024-0.063-3.007-0.332c-0.002,0-0.003-0.001-0.005-0.001c-0.777-0.213-1.532-0.525-2.25-0.926    c-0.074-0.041-0.146-0.086-0.22-0.131c-0.27-0.159-0.531-0.334-0.787-0.522c-0.085-0.062-0.171-0.121-0.255-0.187    c-0.315-0.248-0.625-0.51-0.916-0.803c-0.238-0.238-0.462-0.486-0.671-0.742l-0.002-0.002c-0.253-0.213-0.503-0.432-0.741-0.67    l-1.404-1.404l-1.424-1.424L6.953,22.907C8.761,21.111,11.25,20,14,20z M124,32v1.986V52v28v14.014V96c0,0.338-0.023,0.67-0.051,1    c0.033,0.329,0.051,0.662,0.051,1c0,5.521-4.477,10-10,10c-0.338,0-0.671-0.018-1-0.051h-4.211h-4.626H23.837h-4.626L19.182,108    h-1.195h-1.142H16c-0.338,0-0.67-0.023-1-0.051c-0.329,0.033-0.662,0.051-1,0.051c-5.523,0-10-4.479-10-10    c0-0.338,0.018-0.671,0.051-1C4.023,96.67,4,96.338,4,96v-1.986V80V52V33.986V32c0-0.338,0.023-0.67,0.051-1    C4.018,30.671,4,30.338,4,30c0-1.301,0.256-2.54,0.708-3.681l50.438,50.438c0.238,0.239,0.49,0.457,0.743,0.671    c2.036,1.727,4.509,2.653,7.021,2.805l0.072,0.004c0.339,0.019,0.678,0.003,1.018-0.008c0.34,0.011,0.68,0.025,1.018,0.008    l0.072-0.004c2.512-0.15,4.984-1.078,7.021-2.805c0.252-0.214,0.505-0.432,0.742-0.671l50.438-50.438    C123.744,27.46,124,28.699,124,30c0,0.338-0.018,0.671-0.051,1C123.977,31.33,124,31.662,124,32z" fill="#12426f"/>
		<path d="M34,96H14c-1.104,0-2,0.896-2,2s0.896,2,2,2h20c1.104,0,2-0.896,2-2S35.104,96,34,96z" fill="#12426f"/>
	</g>
</g>
<g>
</g>
<g>
</g>
<g>
</g>
<g>
</g>
<g>
</g>
<g>
</g>
<g>
</g>
<g>
</g>
<g>
</g>
<g>
</g>
<g>
</g>
<g>
</g>
<g>
</g>
<g>
</g>
<g>
</g>
</svg>
