<?xml version="1.0" encoding="iso-8859-1"?>
<!-- Generator: Adobe Illustrator 16.0.0, SVG Export Plug-In . SVG Version: 6.00 Build 0)  -->
<!DOCTYPE svg PUBLIC "-//W3C//DTD SVG 1.1//EN" "http://www.w3.org/Graphics/SVG/1.1/DTD/svg11.dtd">
<svg version="1.1" id="Capa_1" xmlns="http://www.w3.org/2000/svg" xmlns:xlink="http://www.w3.org/1999/xlink" x="0px" y="0px"
	 width="24px" height="23.666px" viewBox="1 -3.833 24 23.666" style="enable-background:new 1 -3.833 24 23.666;"
	 xml:space="preserve">
<g>
	<g>
		<path style="fill:#828282;stroke:#666666;stroke-miterlimit:10;" d="M24.241,1.598C24.219,1.3,24.147,1.017,24.038,0.76
			c-0.104-0.247-0.242-0.471-0.411-0.662c-0.343-0.388-0.802-0.642-1.312-0.689c-0.06-0.005-0.115-0.01-0.176-0.01h-9.141h-9.14
			c-0.06,0-0.118,0.004-0.176,0.01C3.173-0.544,2.715-0.29,2.372,0.097C2.204,0.288,2.064,0.513,1.959,0.76
			C1.85,1.017,1.78,1.3,1.759,1.598C1.754,1.665,1.75,1.73,1.75,1.799v4.8v5.599v4c0,0.068,0.004,0.133,0.009,0.201
			c0.084,1.166,0.9,2.094,1.924,2.189C3.741,18.594,3.799,18.6,3.859,18.6h0.852h0.201h0.612h7.477h7.479h0.609h0.201h0.853
			c0.06,0,0.116-0.006,0.177-0.012c1.022-0.096,1.84-1.021,1.924-2.189c0.004-0.068,0.008-0.133,0.008-0.201v-4V6.599v-4.8
			C24.25,1.73,24.245,1.665,24.241,1.598z M4.211,0.199c0.06,0,0.118,0.004,0.176,0.011c0.058-0.005,0.116-0.011,0.176-0.011h0.349
			H13h8.088h0.351c0.061,0,0.116,0.005,0.176,0.011c0.059-0.007,0.117-0.011,0.177-0.011c0.483,0,0.921,0.222,1.237,0.582
			l-7.974,9.074l-0.25,0.285l-0.248,0.279c-0.041,0.049-0.086,0.09-0.129,0.135l0,0c-0.037,0.051-0.078,0.1-0.119,0.146
			c-0.053,0.061-0.104,0.113-0.161,0.162c-0.016,0.014-0.029,0.025-0.043,0.039c-0.048,0.037-0.093,0.07-0.142,0.104
			c-0.013,0.01-0.024,0.02-0.038,0.025c-0.126,0.08-0.259,0.145-0.396,0.186l0,0c-0.174,0.055-0.352,0.072-0.528,0.066
			c-0.179,0.008-0.354-0.012-0.529-0.066c0,0,0,0-0.001,0c-0.136-0.041-0.27-0.105-0.396-0.186
			c-0.012-0.008-0.024-0.016-0.037-0.025c-0.049-0.031-0.094-0.068-0.139-0.105c-0.016-0.012-0.031-0.023-0.045-0.037
			c-0.056-0.049-0.11-0.102-0.161-0.162c-0.042-0.047-0.081-0.096-0.118-0.146l0,0c-0.045-0.045-0.089-0.088-0.131-0.135
			l-0.247-0.279l-0.25-0.285L2.972,0.779C3.29,0.421,3.728,0.199,4.211,0.199z M23.547,2.598v0.397v3.604v5.599V15v0.398
			c0,0.068-0.004,0.133-0.009,0.199c0.005,0.066,0.009,0.133,0.009,0.201c0,1.105-0.787,2-1.759,2c-0.061,0-0.117-0.004-0.176-0.012
			h-0.739H20.06H5.94H5.127l-0.005,0.012h-0.21H4.711H4.563c-0.06,0-0.118-0.004-0.176-0.012c-0.058,0.008-0.116,0.012-0.176,0.012
			c-0.971,0-1.758-0.895-1.758-2c0-0.068,0.003-0.135,0.009-0.201c-0.005-0.066-0.009-0.131-0.009-0.199V15v-2.803V6.599V2.995
			V2.598c0-0.068,0.004-0.134,0.009-0.2c-0.005-0.065-0.009-0.132-0.009-0.2c0-0.261,0.045-0.508,0.125-0.736l8.866,10.087
			c0.042,0.047,0.086,0.092,0.131,0.133c0.358,0.348,0.792,0.531,1.233,0.563h0.012c0.063,0.004,0.119,0,0.182-0.004
			c0.063,0.004,0.119,0.008,0.181,0.004h0.013c0.44-0.031,0.875-0.215,1.233-0.563c0.045-0.041,0.088-0.086,0.131-0.133
			l8.864-10.087c0.08,0.229,0.125,0.476,0.125,0.736c0,0.068-0.004,0.134-0.01,0.2C23.543,2.464,23.547,2.53,23.547,2.598z"/>
	</g>
</g>
</svg>
