<?xml version="1.0" encoding="utf-8"?>
<!-- Generator: Adobe Illustrator 19.2.1, SVG Export Plug-In . SVG Version: 6.00 Build 0)  -->
<svg version="1.1" id="Capa_1" xmlns="http://www.w3.org/2000/svg" xmlns:xlink="http://www.w3.org/1999/xlink" x="0px" y="0px"
	 viewBox="0 0 24 24" style="enable-background:new 0 0 24 24;" xml:space="preserve">
<style type="text/css">
	.st0{fill:#003366;stroke:#003366;stroke-width:0.5;stroke-miterlimit:10;}
</style>
<g>
	<g>
		<path class="st0" d="M22,7.4c0.3-0.8,0.4-1.6,0.4-2.4c0-1.1-0.2-2.2-0.7-3.1c-1,0-1.9,0.2-2.7,0.6c-0.8,0.4-1.7,1-2.7,1.7
			c-1.3-0.3-2.6-0.5-4-0.5c-1.6,0-3,0.2-4.5,0.5C6.7,3.4,5.8,2.8,5,2.4S3.3,1.8,2.3,1.8c-0.5,1-0.7,2-0.7,3.1c0,0.8,0.1,1.7,0.4,2.5
			C0.7,9,0,10.9,0,13.2c0,2,0.3,3.6,0.9,4.8c0.3,0.6,0.7,1.2,1.2,1.7c0.5,0.5,1.1,0.9,1.7,1.2c0.7,0.3,1.3,0.5,2,0.7
			c0.7,0.2,1.4,0.3,2.2,0.4c0.8,0.1,1.5,0.2,2.1,0.2c0.6,0,1.3,0,2,0c0.9,0,1.7,0,2.4-0.1c0.7,0,1.5-0.1,2.5-0.3
			c0.9-0.2,1.7-0.4,2.5-0.7c0.7-0.3,1.4-0.7,2-1.2c0.6-0.5,1.2-1.2,1.5-1.9c0.6-1.2,0.9-2.8,0.9-4.8C24,10.9,23.3,9,22,7.4z
			 M20.3,17.9c-0.3,0.6-0.7,1.1-1.2,1.5c-0.5,0.4-1.1,0.6-1.8,0.9c-0.7,0.2-1.4,0.4-2,0.4c-0.6,0.1-1.4,0.1-2.1,0.1h-2.4
			c-0.8,0-1.5,0-2.1-0.1c-0.6-0.1-1.3-0.2-2-0.4c-0.7-0.2-1.3-0.5-1.8-0.9C4.4,19,4,18.5,3.7,17.9c-0.3-0.6-0.5-1.4-0.5-2.2
			c0-1.2,0.3-2.1,1-2.9c0.7-0.8,1.6-1.2,2.7-1.2c0.4,0,1.4,0.1,2.8,0.3c0.7,0.1,1.4,0.2,2.3,0.2c0.8,0,1.6-0.1,2.3-0.2
			c1.5-0.2,2.4-0.3,2.8-0.3c1.1,0,2,0.4,2.7,1.2c0.7,0.8,1,1.8,1,2.9C20.8,16.5,20.6,17.3,20.3,17.9z"/>
		<path class="st0" d="M8.4,13.4c-0.3-0.3-0.6-0.5-1-0.5c-0.4,0-0.8,0.2-1,0.5c-0.3,0.3-0.5,0.7-0.6,1.1c-0.1,0.4-0.2,0.8-0.2,1.2
			c0,0.4,0.1,0.8,0.2,1.2C5.8,17.3,6,17.6,6.3,18c0.3,0.3,0.6,0.5,1,0.5c0.4,0,0.8-0.2,1-0.5c0.3-0.3,0.5-0.7,0.6-1.1
			c0.1-0.4,0.2-0.8,0.2-1.2c0-0.4-0.1-0.8-0.2-1.2C8.9,14.1,8.7,13.7,8.4,13.4z"/>
		<path class="st0" d="M17.7,13.4c-0.3-0.3-0.6-0.5-1-0.5c-0.4,0-0.8,0.2-1,0.5c-0.3,0.3-0.5,0.7-0.6,1.1c-0.1,0.4-0.2,0.8-0.2,1.2
			c0,0.4,0.1,0.8,0.2,1.2c0.1,0.4,0.3,0.8,0.6,1.1c0.3,0.3,0.6,0.5,1,0.5c0.4,0,0.8-0.2,1-0.5c0.3-0.3,0.5-0.7,0.6-1.1
			c0.1-0.4,0.2-0.8,0.2-1.2c0-0.4-0.1-0.8-0.2-1.2C18.2,14.1,18,13.7,17.7,13.4z"/>
	</g>
</g>
</svg>
