<?xml version="1.0" encoding="utf-8"?>
<!-- Generator: Adobe Illustrator 19.2.1, SVG Export Plug-In . SVG Version: 6.00 Build 0)  -->
<svg version="1.1" id="Capa_1" xmlns="http://www.w3.org/2000/svg" xmlns:xlink="http://www.w3.org/1999/xlink" x="0px" y="0px"
	 viewBox="0 0 25 25" style="enable-background:new 0 0 25 25;" xml:space="preserve">
<style type="text/css">
	.st0{fill:#003366;stroke:#003366;stroke-miterlimit:10;}
</style>
<g>
	<g>
		<g>
			<path class="st0" d="M12.5,0.5c-6.6,0-12,5.4-12,12s5.4,12,12,12s12-5.4,12-12C24.5,5.9,19.1,0.5,12.5,0.5z M9.5,18.3h-3V7.8h3
				V18.3z M8.1,7.2c-0.8,0-1.4-0.6-1.4-1.4s0.6-1.4,1.4-1.4c0.8,0,1.4,0.6,1.4,1.4C9.5,6.5,8.9,7.2,8.1,7.2z M20,18.3h-3v-6.5
				c0-0.8-0.2-1.3-1.2-1.3c-1.5,0-1.8,1.3-1.8,1.3v6.5h-3V7.8h3v1c0.4-0.3,1.5-1,3-1c1,0,3,0.6,3,4.1C20,11.9,20,18.3,20,18.3z"/>
		</g>
	</g>
</g>
</svg>
