<?xml version="1.0" encoding="iso-8859-1"?>
<!-- Generator: Adobe Illustrator 17.1.0, SVG Export Plug-In . SVG Version: 6.00 Build 0)  -->
<!DOCTYPE svg PUBLIC "-//W3C//DTD SVG 1.1//EN" "http://www.w3.org/Graphics/SVG/1.1/DTD/svg11.dtd">
<svg version="1.1" id="Capa_1" xmlns="http://www.w3.org/2000/svg" xmlns:xlink="http://www.w3.org/1999/xlink" x="0px" y="0px"
	 viewBox="0 0 193.38 193.38" style="enable-background:new 0 0 193.38 193.38;" xml:space="preserve">
<path d="M80.303,182.991c-0.965,0-1.885-0.562-2.294-1.504L64.38,150.121c-24.209,4.742-48.988-8.96-59.527-33.213
	C-7.309,88.915,4.18,56.85,30.465,45.428c12.76-5.545,27.053-5.456,40.244,0.254c7.416,3.21,13.982,7.981,19.354,13.964
	c0.224-1.16,0.48-2.308,0.771-3.44c2.745-10.723,8.295-20.221,16.115-27.625c-1.423-1.9-2.267-4.258-2.267-6.809
	c0-6.277,5.106-11.383,11.384-11.383c4.475,0,8.354,2.595,10.213,6.36c9.328-3.249,19.174-3.693,28.636-1.271
	c27.764,7.109,44.191,36.948,36.621,66.515c-6.56,25.616-28.888,43.044-53.502,42.232l-8.483,33.129
	c-0.343,1.337-1.706,2.145-3.042,1.802l-15.734-4.029c-1.338-0.342-2.145-1.705-1.802-3.042l8.483-33.132
	c-4.901-2.486-9.411-5.828-13.305-9.849c-2.421,12.958-9.418,24.679-20.289,32.55l13.63,31.368c0.265,0.608,0.276,1.296,0.033,1.913
	c-0.243,0.617-0.722,1.112-1.33,1.376l-14.896,6.473C80.974,182.925,80.636,182.991,80.303,182.991z M65.252,139.58l16.348,37.622
	l10.311-4.48l-13.388-30.811c-0.024-0.047-0.047-0.095-0.068-0.145l-2.896-6.665L65.252,139.58z M114.436,150.903l10.891,2.789
	l8.352-32.613c0.006-0.028,0.013-0.055,0.02-0.083l1.804-7.042l-10.891-2.789L114.436,150.903z M37.07,142.501
	c7.926,3.267,16.622,4.384,25.26,2.912l-2.665-6.134c-0.55-1.266,0.03-2.739,1.297-3.289l14.896-6.473
	c0.216-0.094,0.442-0.156,0.672-0.186c1.08-0.143,2.167,0.434,2.622,1.483l2.664,6.131c6.971-5.313,12.085-12.429,15.104-20.45
	L37.07,142.501z M50.114,46.338c-6.036,0-12.015,1.225-17.656,3.676C8.701,60.337-1.625,89.451,9.439,114.916
	c4.694,10.804,12.472,19.314,21.754,24.687l67.618-29.381c0.504-2.19,0.862-4.423,1.071-6.688c-0.021-0.171-0.025-0.345-0.011-0.519
	c0.613-7.252-0.333-14.656-2.743-21.642c-0.453-1.307-0.961-2.609-1.521-3.899v0c-0.473-1.087-0.978-2.155-1.514-3.199
	c-1.273-2.47-2.742-4.847-4.387-7.1c-0.059-0.08-0.111-0.163-0.159-0.249c-5.387-7.313-12.524-13.063-20.824-16.655
	C62.669,47.65,56.36,46.338,50.114,46.338z M139.307,119.251c0.143,0.001,0.284,0.002,0.427,0.002
	c8.612,0,16.865-2.474,24.055-6.884l-58.71-15.033c0.046,1.731,0.012,3.457-0.101,5.167c3.829,4.737,8.528,8.653,13.751,11.474
	l1.658-6.474c0.005-0.02,0.01-0.039,0.016-0.058c0.001-0.002,0.001-0.001,0.001-0.003c0.164-0.582,0.523-1.059,0.987-1.378l0.001,0
	c0.001-0.001,0.003-0.002,0.005-0.003c0.002,0,0.004-0.002,0.004-0.003c0.044-0.03,0.089-0.058,0.134-0.085s0.091-0.052,0.137-0.075
	c0.002,0,0.003-0.001,0.003-0.001c0.511-0.261,1.111-0.348,1.712-0.205c0.015,0.003,0.028,0.007,0.043,0.011l15.734,4.029
	c0.171,0.044,0.336,0.105,0.491,0.183c0.43,0.213,0.793,0.547,1.041,0.966c0.338,0.57,0.435,1.252,0.271,1.894L139.307,119.251z
	 M104.7,92.078l64.431,16.499c8.313-6.777,14.64-16.412,17.562-27.824c6.887-26.896-7.925-54.005-33.018-60.431
	c-8.651-2.216-17.675-1.759-26.207,1.31c0.001,0.051,0.001,0.102,0.001,0.153c0,6.277-5.106,11.384-11.383,11.384
	c-1.542,0-3.066-0.318-4.474-0.92c-0.285-0.122-0.565-0.255-0.839-0.399c-7.337,6.806-12.541,15.618-15.096,25.598
	c-0.627,2.447-1.086,4.979-1.366,7.538c1.573,2.236,2.999,4.599,4.266,7.074c0.577,1.124,1.118,2.266,1.621,3.422
	c0.586,1.35,1.121,2.718,1.603,4.103C103.245,83.708,104.204,87.899,104.7,92.078z M112.7,27.194
	c0.979,0.609,2.132,0.961,3.366,0.961c3.52,0,6.383-2.864,6.383-6.384c0-3.52-2.863-6.383-6.383-6.383
	c-3.521,0-6.384,2.864-6.384,6.383c0,1.975,0.901,3.744,2.315,4.916c0.033,0.024,0.066,0.049,0.099,0.076
	C112.291,26.919,112.493,27.063,112.7,27.194z M61.406,73.876c-6.277,0-11.384-5.107-11.384-11.384s5.106-11.383,11.384-11.383
	S72.79,56.215,72.79,62.492S67.683,73.876,61.406,73.876z M61.406,56.109c-3.521,0-6.384,2.863-6.384,6.383s2.863,6.384,6.384,6.384
	s6.384-2.864,6.384-6.384S64.926,56.109,61.406,56.109z"/>
<g>
</g>
<g>
</g>
<g>
</g>
<g>
</g>
<g>
</g>
<g>
</g>
<g>
</g>
<g>
</g>
<g>
</g>
<g>
</g>
<g>
</g>
<g>
</g>
<g>
</g>
<g>
</g>
<g>
</g>
</svg>
