<?xml version="1.0" encoding="utf-8"?>
<!-- Generator: Adobe Illustrator 19.2.1, SVG Export Plug-In . SVG Version: 6.00 Build 0)  -->
<svg version="1.1" id="Capa_1" xmlns="http://www.w3.org/2000/svg" xmlns:xlink="http://www.w3.org/1999/xlink" x="0px" y="0px"
	 viewBox="0 0 25.3 25.4" style="enable-background:new 0 0 25.3 25.4;" xml:space="preserve">
<style type="text/css">
	.st0{fill:#003366;stroke:#003366;stroke-width:0.5;stroke-miterlimit:10;}
</style>
<g>
	<g>
		<path class="st0" d="M12.7,0.7C5.9,0.7,0.3,6.2,0.3,13c0,6.8,5.5,12.3,12.3,12.3C19.5,25.4,25,19.8,25,13
			C25,6.2,19.5,0.7,12.7,0.7z M18.2,10.2c0,0.1,0,0.2,0,0.4c0,3.8-2.9,8.1-8.1,8.1c-1.6,0-3.1-0.5-4.4-1.3c0.2,0,0.4,0,0.7,0
			c1.3,0,2.6-0.5,3.5-1.2c-1.2,0-2.3-0.8-2.7-2c0.2,0,0.4,0.1,0.5,0.1c0.3,0,0.5,0,0.7-0.1c-1.3-0.3-2.3-1.4-2.3-2.8c0,0,0,0,0,0
			c0.4,0.2,0.8,0.3,1.3,0.4c-0.8-0.5-1.3-1.4-1.3-2.4c0-0.5,0.1-1,0.4-1.4c1.4,1.7,3.5,2.8,5.9,3c0-0.2-0.1-0.4-0.1-0.6
			c0-1.6,1.3-2.8,2.8-2.8c0.8,0,1.6,0.3,2.1,0.9c0.6-0.1,1.3-0.4,1.8-0.7C19,8.3,18.5,8.8,18,9.2c0.6-0.1,1.1-0.2,1.6-0.4
			C19.2,9.3,18.7,9.8,18.2,10.2z"/>
	</g>
</g>
</svg>
